<svg xmlns="http://www.w3.org/2000/svg" xmlns:xlink="http://www.w3.org/1999/xlink" width="500" zoomAndPan="magnify" viewBox="0 0 375 374.999991" height="500" preserveAspectRatio="xMidYMid meet" version="1.0"><defs><g/><clipPath id="161983cf09"><path d="M 234 144 L 256.390625 144 L 256.390625 161.808594 L 234 161.808594 Z M 234 144 " clip-rule="nonzero"/></clipPath></defs><rect x="-37.5" width="450" fill="#ffffff" y="-37.499999" height="449.999989" fill-opacity="1"/><rect x="-37.5" width="450" fill="#000000" y="-37.499999" height="449.999989" fill-opacity="1"/><g fill="#ffffff" fill-opacity="1"><g transform="translate(158.010287, 216.8967)"><g><path d="M 9.015625 -50.828125 C 11.472656 -50.828125 14.078125 -50.65625 16.828125 -50.3125 C 19.585938 -49.976562 22.257812 -49.320312 24.84375 -48.34375 C 27.425781 -47.375 29.765625 -45.957031 31.859375 -44.09375 C 33.953125 -42.226562 35.625 -39.78125 36.875 -36.75 C 38.125 -33.71875 38.75 -29.9375 38.75 -25.40625 C 38.75 -21.050781 38.132812 -17.378906 36.90625 -14.390625 C 35.675781 -11.398438 34.023438 -8.960938 31.953125 -7.078125 C 29.878906 -5.191406 27.539062 -3.726562 24.9375 -2.6875 C 22.332031 -1.65625 19.660156 -0.945312 16.921875 -0.5625 C 14.191406 -0.1875 11.554688 0 9.015625 0 L 0.703125 0 C 0.234375 0 0 -0.191406 0 -0.578125 L 0 -20.515625 L 9.71875 -20.515625 L 9.71875 -9.34375 C 10.945312 -9.300781 12.382812 -9.332031 14.03125 -9.4375 C 15.6875 -9.539062 17.382812 -9.859375 19.125 -10.390625 C 20.863281 -10.921875 22.484375 -11.753906 23.984375 -12.890625 C 25.484375 -14.035156 26.6875 -15.625 27.59375 -17.65625 C 28.507812 -19.695312 28.96875 -22.28125 28.96875 -25.40625 C 28.96875 -29.4375 28.128906 -32.664062 26.453125 -35.09375 C 24.785156 -37.53125 22.5 -39.265625 19.59375 -40.296875 C 16.695312 -41.335938 13.40625 -41.753906 9.71875 -41.546875 L 9.71875 -30.296875 L 0 -30.296875 L 0 -50.25 C 0 -50.632812 0.234375 -50.828125 0.703125 -50.828125 Z M 9.015625 -50.828125 "/></g></g></g><g fill="#ffffff" fill-opacity="1"><g transform="translate(198.724454, 216.8967)"><g><path d="M 34.6875 -0.828125 C 34.769531 -0.617188 34.757812 -0.425781 34.65625 -0.25 C 34.550781 -0.0820312 34.367188 0 34.109375 0 L 25.03125 0 C 24.6875 0 24.472656 -0.125 24.390625 -0.375 L 15.125 -20.515625 L 9.65625 -20.515625 L 9.65625 -0.578125 C 9.65625 -0.191406 9.421875 0 8.953125 0 L 0.640625 0 C 0.210938 0 0 -0.191406 0 -0.578125 L 0 -29.859375 L 17.09375 -29.859375 C 17.601562 -29.859375 18.28125 -29.898438 19.125 -29.984375 C 19.96875 -30.066406 20.800781 -30.296875 21.625 -30.671875 C 22.457031 -31.054688 23.160156 -31.640625 23.734375 -32.421875 C 24.304688 -33.210938 24.59375 -34.304688 24.59375 -35.703125 C 24.59375 -37.097656 24.285156 -38.195312 23.671875 -39 C 23.054688 -39.8125 22.300781 -40.394531 21.40625 -40.75 C 20.519531 -41.113281 19.671875 -41.347656 18.859375 -41.453125 C 18.054688 -41.554688 17.46875 -41.609375 17.09375 -41.609375 L 0 -41.609375 L 0 -50.25 C 0 -50.632812 0.210938 -50.828125 0.640625 -50.828125 L 17.09375 -50.828125 C 17.6875 -50.828125 18.640625 -50.769531 19.953125 -50.65625 C 21.265625 -50.550781 22.734375 -50.265625 24.359375 -49.796875 C 25.992188 -49.335938 27.5625 -48.578125 29.0625 -47.515625 C 30.570312 -46.460938 31.8125 -44.984375 32.78125 -43.078125 C 33.757812 -41.171875 34.25 -38.710938 34.25 -35.703125 C 34.25 -33.117188 33.820312 -30.925781 32.96875 -29.125 C 32.125 -27.320312 30.992188 -25.847656 29.578125 -24.703125 C 28.160156 -23.566406 26.601562 -22.679688 24.90625 -22.046875 C 26.507812 -18.441406 28.148438 -14.878906 29.828125 -11.359375 C 31.503906 -7.847656 33.125 -4.335938 34.6875 -0.828125 Z M 34.6875 -0.828125 "/></g></g></g><g fill="#ffffff" fill-opacity="1"><g transform="translate(235.24653, 216.8967)"><g><path d="M 24.140625 -9.46875 L 24.140625 0 L 0.703125 0 C 0.234375 0 0 -0.191406 0 -0.578125 L 0 -50.25 C 0 -50.632812 0.234375 -50.828125 0.703125 -50.828125 L 24.140625 -50.828125 L 24.140625 -41.609375 L 9.71875 -41.609375 L 9.71875 -30.109375 L 29.671875 -30.109375 C 30.140625 -30.109375 30.375 -29.921875 30.375 -29.546875 L 30.375 -21.46875 C 30.375 -21.09375 30.140625 -20.90625 29.671875 -20.90625 L 9.71875 -20.90625 L 9.71875 -9.46875 Z M 24.140625 -9.46875 "/></g></g></g><g clip-path="url(#161983cf09)"><path fill="#ff3131" d="M 250.191406 150.425781 L 252.667969 144.476562 C 252.945312 143.816406 253.90625 143.902344 254.0625 144.605469 L 256.675781 156.640625 C 256.742188 156.957031 256.597656 157.285156 256.3125 157.4375 C 254.46875 158.433594 247.523438 161.867188 239.015625 162.074219 C 238.703125 162.085938 238.417969 161.886719 238.308594 161.59375 L 234.136719 149.945312 C 233.890625 149.277344 234.640625 148.6875 235.230469 149.082031 L 240.90625 152.894531 C 241.316406 153.171875 241.878906 152.960938 242.015625 152.484375 L 243.710938 146.484375 C 243.871094 145.929688 244.574219 145.765625 244.960938 146.191406 L 248.960938 150.636719 C 249.332031 151.035156 249.988281 150.917969 250.191406 150.425781 Z M 250.191406 150.425781 " fill-opacity="1" fill-rule="nonzero"/></g><g fill="#ffffff" fill-opacity="1"><g transform="translate(63.577208, 215.520843)"><g><path d="M 34.328125 -41.421875 L 39.265625 -32.546875 L 19.96875 -21.84375 L 38.875 -10.4375 L 33.703125 -1.828125 L 6.09375 -18.390625 L 6.21875 -25.90625 Z M 34.328125 -41.421875 "/></g></g></g><g fill="#ffffff" fill-opacity="1"><g transform="translate(267.155113, 215.530076)"><g><path d="M 38.6875 -26 L 38.6875 -18.484375 L 10.796875 -2.421875 L 5.765625 -11.109375 L 24.90625 -22.1875 L 5.765625 -33.21875 L 10.859375 -42 Z M 38.6875 -26 "/></g></g></g><g fill="#ff3131" fill-opacity="1"><g transform="translate(108.501852, 216.8967)"><g><path d="M 10.484375 -32.40625 L 20.140625 -32.40625 L 20.140625 -0.578125 C 20.140625 -0.191406 19.882812 0 19.375 0 L 11.1875 0 C 10.71875 0 10.484375 -0.191406 10.484375 -0.578125 Z M 0.703125 -42.125 C 0.234375 -42.125 0 -42.3125 0 -42.6875 L 0 -50.25 C 0 -50.632812 0.234375 -50.828125 0.703125 -50.828125 L 29.859375 -50.828125 C 30.328125 -50.828125 30.5625 -50.632812 30.5625 -50.25 L 30.5625 -42.6875 C 30.5625 -42.3125 30.328125 -42.125 29.859375 -42.125 Z M 0.703125 -42.125 "/></g></g></g><g fill="#ff3131" fill-opacity="1"><g transform="translate(140.57775, 216.8967)"><g><path d="M 9.15625 -4.453125 C 9.15625 -3.222656 8.707031 -2.171875 7.8125 -1.296875 C 6.925781 -0.429688 5.828125 0 4.515625 0 C 3.285156 0 2.222656 -0.429688 1.328125 -1.296875 C 0.441406 -2.171875 0 -3.222656 0 -4.453125 C 0 -5.679688 0.441406 -6.738281 1.328125 -7.625 C 2.222656 -8.507812 3.285156 -8.953125 4.515625 -8.953125 C 5.828125 -8.953125 6.925781 -8.507812 7.8125 -7.625 C 8.707031 -6.738281 9.15625 -5.679688 9.15625 -4.453125 Z M 9.15625 -4.453125 "/></g></g></g></svg>